<svg id="Layer_1" enable-background="new 0 0 512 512" height="512" viewBox="0 0 512 512" width="512" xmlns="http://www.w3.org/2000/svg"><g><g clip-rule="evenodd" fill-rule="evenodd"><path d="m512 188.351h-512v-120.298c0-8.284 6.716-15 15-15h482c8.284 0 15 6.716 15 15z" fill="#fdbf00"/><path d="m497 53.053h-240.999v135.298h255.999v-120.298c0-8.284-6.716-15-15-15z" fill="#ff8856"/><path d="m497 458.947h-482c-8.284 0-15-6.716-15-15v-120.298h512v120.298c0 8.284-6.716 15-15 15z" fill="#bee75e"/><path d="m256.001 323.649v135.298h240.999c8.284 0 15-6.716 15-15v-120.298z" fill="#00cc71"/><path d="m0 188.351h512v135.298h-512z" fill="#fff4f4"/><path d="m256.001 188.351h255.999v135.298h-255.999z" fill="#f6efea"/><ellipse cx="256.001" cy="256" fill="#fff4f4" rx="60" ry="60" transform="matrix(.974 -.228 .228 .974 -51.587 65.048)"/><path d="m256.001 196v120c33.047 0 60-26.953 60-60s-26.953-60-60-60z" fill="#f6efea"/></g><path d="m256 331c-41.355 0-75-33.645-75-75s33.646-75 75-75c41.355 0 75 33.645 75 75.001.001 41.354-33.644 74.999-75 74.999zm0-120c-24.813 0-45 20.187-45 45.001 0 24.813 20.187 45 45 45s45-20.187 45-45c.001-24.814-20.186-45.001-45-45.001z" fill="#00429d"/><path clip-rule="evenodd" d="m256.001 271c8.262 0 15-6.738 15-15s-6.738-15-15-15-15 6.738-15 15 6.738 15 15 15z" fill="#00429d" fill-rule="evenodd"/><path clip-rule="evenodd" d="m256.001 241v30c8.262 0 15-6.738 15-15-.001-8.261-6.739-15-15-15z" fill="#00347b" fill-rule="evenodd"/><path d="m256.001 181v30c24.813 0 45 20.187 45 45.001 0 24.813-20.187 45-45 45v30c41.355 0 75-33.645 75-75 0-41.356-33.645-75.001-75-75.001z" fill="#00347b"/></g></svg>